Coordinates
version=1
nRows=19
nColumns=33
inDegrees=yes

Units are S.I. units (second, meters, Newtons, ...)
Angles are in degrees.

endheader
time	ground_thorax_rot_x	ground_thorax_rot_y	ground_thorax_rot_z	ground_thorax_tx	ground_thorax_ty	ground_thorax_tz	clav_prot_r	clav_elev_r	scapula_abduction_r	scapula_elevation_r	scapula_upward_rot_r	scapula_winging_r	shoulder_elv_r	plane_of_elev_r	axial_rot_r	elbow_flexion_r	pro_sup_r	wrist_flex_r	wrist_dev_r	clav_prot_l	clav_elev_l	scapula_abduction_l	scapula_elevation_l	scapula_upward_rot_l	scapula_winging_l	shoulder_elv_l	plane_of_elev_l	axial_rot_l	elbow_flexion_l	pro_sup_l	wrist_flex_l	wrist_dev_l
      5.66000000	     90.00000000	    -90.00000000	    -90.00000000	      4.37108010	    803.92517541	      7.11971262	    -45.00000000	      8.04508700	    -44.86090733	     19.32620234	    -45.00000000	  -5510.20696780	  -1700.30481604	     23.30233410	   -148.86150559	   2536.03281664	   -159.55908001	      8.82042903	      3.87638081	     28.80938298	     41.68553323	    -45.00000000	    -45.00000000	      8.31287054	    758.42737665	  -3125.56649573	      9.29358582	   -161.22184722	    364.93638559	     17.92074964	     13.71100624	    -18.02426584
      5.67000000	     90.00000000	    -90.00000000	    -90.00000000	      5.07536914	    803.54234557	      7.77943809	    -45.00000000	      7.99945891	    -44.76717060	     19.35002659	    -45.00000000	  -5510.15577238	  -1700.39339075	     23.29241428	   -148.61225654	   2536.20750354	   -161.02433991	      8.95754584	      3.85945003	     28.64646118	     42.38236834	    -45.00000000	    -45.00000000	      8.30341372	    759.07788806	  -3125.79776259	      9.74521857	   -160.95407452	    364.88463945	     17.96366748	     13.41479872	    -17.90222896
      5.68000000	     90.00000000	    -90.00000000	    -90.00000000	      5.52867025	    803.27311411	      8.37873962	    -45.00000000	      7.88570774	    -44.49423978	     19.23681608	    -45.00000000	  -5510.31739387	  -1700.24763883	     23.28269027	   -148.89219507	   2536.26032975	   -162.68214830	      9.12493733	      3.73182917	     28.65866861	     41.81400579	    -45.00000000	    -45.00000000	      8.14795470	    758.71001632	  -3125.64682598	      9.07319855	   -161.00526376	    364.64116336	     18.13917639	     13.51815899	    -17.89189855
      5.69000000	     90.00000000	    -90.00000000	    -90.00000000	      5.73164036	    803.09138764	      8.91429652	    -45.00000000	      7.74531323	    -44.36255267	     19.29391405	    -45.00000000	  -5510.23582284	  -1700.28342716	     23.29893463	   -148.91951905	   2536.45752390	   -164.59621236	      9.29085832	      3.59450717	     28.72006089	     42.15530778	    -45.00000000	    -45.00000000	      8.04116992	    759.71182069	  -3125.77417161	     10.03915681	   -160.51404916	    364.70191248	     18.19209691	     12.92946173	    -17.78616406
      5.70000000	     90.00000000	    -90.00000000	    -90.00000000	      5.67788938	    802.97671821	      9.37251201	    -45.00000000	      7.50991466	    -44.23667270	     19.16560750	    -45.00000000	  -5510.24512734	  -1703.05254915	     22.28618986	   -164.43003081	   2529.02686296	   -350.96344685	     16.76422984	     12.36604246	     28.61703133	     41.67314024	    -45.00000000	    -45.00000000	      7.84122027	    759.28252385	  -3125.91596255	      9.26592848	   -158.95398899	    364.81857546	     24.80311893	     12.74706765	    -18.39648116
      5.71000000	     90.00000000	    -90.00000000	    -90.00000000	      5.36037248	    802.90410132	      9.74750569	    -45.00000000	      7.74055547	    -43.93078166	     19.21412799	    -45.00000000	  -5510.40348525	  -1703.17479866	     22.41876748	   -164.29013750	   2529.04780180	   -350.84262732	     16.60903814	     12.79591755	     28.66616426	     41.99766124	    -45.00000000	    -45.00000000	      7.86731769	    759.35873921	  -3125.94871736	      9.28635280	   -159.09391910	    364.63287956	     23.38548600	     12.45893891	    -18.31040564
      5.72000000	     90.00000000	    -90.00000000	    -90.00000000	      4.77621461	    802.85518297	     10.02662945	    -45.00000000	      7.45495444	    -43.77543706	     19.18999836	    -45.00000000	  -5510.25355793	  -1702.98777775	     22.30541832	   -164.23210953	   2528.91062980	   -350.81392015	     16.79326917	     12.21380096	     28.63435522	     41.69206269	    -45.00000000	    -45.00000000	      7.79221780	    759.24486652	  -3125.88045853	      9.33004102	   -159.28675769	    364.55632775	     22.45129784	     12.75668816	    -18.11711506
      5.73000000	     90.00000000	    -90.00000000	    -90.00000000	      3.92188640	    802.80938518	     10.20668815	    -45.00000000	      7.54593068	    -43.54316963	     19.19339599	    -45.00000000	  -5510.34182640	  -1703.01231041	     22.51613036	   -163.99734721	   2528.98629536	   -350.65125359	     16.63245222	     12.69748080	     28.60673312	     41.79403567	    -45.00000000	    -45.00000000	      7.76909499	    759.36863812	  -3125.87664390	      9.27599297	   -159.32783829	    364.42299467	     21.65544698	     12.43017621	    -18.12559814
      5.74000000	     90.00000000	    -90.00000000	    -90.00000000	      2.79287875	    802.74897211	     10.28634447	    -45.00000000	      7.39485645	    -43.25958515	     19.14984522	    -45.00000000	  -5510.20493397	  -1702.82192252	     22.38372941	   -163.82270161	   2528.83331531	   -350.59297594	     16.80509980	     12.09030438	     28.58365632	     41.62562651	    -45.00000000	    -45.00000000	      7.78856663	    759.20834082	  -3125.92218172	      9.22660225	   -159.45846547	    364.40941098	     21.16096348	     12.67344297	    -18.00964995
      5.75000000	     90.00000000	    -90.00000000	    -90.00000000	      1.39441699	    802.65903039	     10.26649148	    -45.00000000	      7.39939092	    -42.95603078	     19.20306414	    -45.00000000	  -5510.24811803	  -1702.91942438	     22.53076590	   -163.46989665	   2528.93668067	   -350.37171327	     16.59274881	     12.68169939	     28.53999923	     41.66044016	    -45.00000000	    -45.00000000	      7.80632040	    759.19350305	  -3125.88633360	      9.31223367	   -159.47208434	    364.32116386	     20.70715373	     12.25864165	    -18.10668471
      5.76000000	     90.00000000	    -90.00000000	    -90.00000000	     -0.27351853	    802.52849598	     10.15166425	    -45.00000000	      7.33024469	    -42.79881559	     19.13821931	    -45.00000000	  -5510.07293810	  -1702.55216996	     22.49451899	   -163.25056549	   2528.72523083	   -350.30866575	     16.88746715	     11.56124384	     28.49235094	     41.50635547	    -45.00000000	    -45.00000000	      7.89480074	    758.92569120	  -3125.94045961	      9.18323825	   -159.67650703	    364.35446032	     20.44897872	     12.75257421	    -17.98056113
      5.77000000	     90.00000000	    -90.00000000	    -90.00000000	     -2.20748649	    802.35049003	      9.94756464	    -45.00000000	      7.28354805	    -42.37252719	     19.24939256	    -45.00000000	  -5510.11118302	  -1702.80711819	     22.60705609	   -162.57934424	   2528.93117438	   -349.91728675	     16.47692266	     13.04779077	     28.44299813	     41.53938744	    -45.00000000	    -45.00000000	      7.92398753	    758.98931969	  -3125.92191079	      9.42906370	   -159.68668206	    364.25101353	     20.05416845	     11.88533745	    -18.20573856
      5.78000000	     90.00000000	    -90.00000000	    -90.00000000	     -4.40888626	    802.12203325	      9.65991532	    -45.00000000	      7.26158844	    -42.31012782	     19.21089914	    -45.00000000	  -5509.81528586	  -1702.42919254	     22.69766494	   -162.36806167	   2529.01484027	   -349.80079443	     16.86479297	     11.94900564	     28.33435752	     41.32000609	    -45.00000000	    -45.00000000	      8.01119994	    758.80358378	  -3125.80258949	      9.50925830	   -159.98173193	    364.34239393	     19.82478509	     12.39637288	    -18.08880079
      5.79000000	     90.00000000	    -90.00000000	    -90.00000000	     -6.87429157	    801.84422427	      9.29536031	    -45.00000000	      7.27536078	    -41.98499932	     19.19693805	    -45.00000000	  -5509.82899305	  -1702.24647699	     22.86394001	   -161.84117045	   2529.04765593	   -349.47987535	     16.80168801	     11.78803690	     28.26732946	     41.33553783	    -45.00000000	    -45.00000000	      8.13262954	    758.48331390	  -3125.84048982	      9.41224593	   -160.22646612	    364.29892452	     19.54904591	     12.28984497	    -18.19283339
      5.80000000	     90.00000000	    -90.00000000	    -90.00000000	     -9.60135690	    801.52066038	      8.86077671	    -45.00000000	      7.32981557	    -41.47958449	     19.17300691	    -45.00000000	  -5509.78107866	  -1702.09324386	     22.61042644	   -161.23186198	   2528.65920985	   -349.11829690	     16.79114996	     11.68223823	     28.19723817	     41.23119785	    -45.00000000	    -45.00000000	      8.41481002	    758.22946470	  -3125.95386524	      9.37347631	   -160.57066809	    364.15632622	     19.36464827	     12.24678996	    -18.18023175
      5.81000000	     90.00000000	    -90.00000000	    -90.00000000	    -12.59544462	    801.15600302	      8.36236905	    -45.00000000	      7.20854781	    -41.43076348	     19.45199405	    -45.00000000	  -5509.60089443	  -1702.03297339	     23.18294446	   -160.87208145	   2528.96491377	   -348.80104973	     16.78509644	     11.46295093	     28.07266868	     41.22431840	    -45.00000000	    -45.00000000	      8.38243718	    758.03900769	  -3125.72799885	      9.58461657	   -160.91745663	    364.40088819	     19.16291529	     12.15424930	    -18.36982959
      5.82000000	     90.00000000	    -90.00000000	    -90.00000000	    -15.85100624	    800.75771002	      7.80856252	    -45.00000000	      7.28753728	    -41.06094789	     19.38622925	    -45.00000000	  -5509.36895892	  -1701.72019531	     23.05613316	   -160.05204002	   2529.01605260	   -348.32252506	     16.92775102	     11.40000813	     27.92379810	     40.97029679	    -45.00000000	    -45.00000000	      8.61882453	    757.84992836	  -3125.76254511	      9.73533201	   -161.43385686	    364.36871462	     18.96412228	     12.10579110	    -18.33194810
      5.83000000	     90.00000000	    -90.00000000	    -90.00000000	    -19.36525081	    800.33423830	      7.20770922	    -45.00000000	      7.39764371	    -40.50782376	     19.27627030	    -45.00000000	  -5509.51122020	  -1701.48636886	     23.01297528	   -159.24931139	   2528.74344772	   -347.86469088	     16.81517173	     11.29459713	     27.79986041	     41.01506786	    -45.00000000	    -45.00000000	      9.00572686	    757.34617535	  -3125.83654931	      9.49780393	   -162.04149691	    364.17850768	     18.82174470	     11.98693345	    -18.43423493
      5.84000000	     90.00000000	    -90.00000000	    -90.00000000	    -23.13763622	    799.89456074	      6.56759226	    -45.00000000	      7.30111591	    -40.33607252	     19.49783407	    -45.00000000	  -5509.13980210	  -1701.31411468	     23.24859176	   -158.51598862	   2528.95724270	   -347.44404197	     16.96918948	     11.15558067	     27.63030192	     40.82593263	    -45.00000000	    -45.00000000	      9.05453064	    757.37645340	  -3125.65949360	     10.07084541	   -162.69868257	    364.48668064	     18.69643246	     11.96772774	    -18.45589810
